<svg fill="#fff" id="Layer_1" enable-background="new 0 0 64 64" height="512" viewBox="0 0 64 64" width="512" xmlns="http://www.w3.org/2000/svg"><g><path d="m48.668 42.137-7.668-1.917v-5.292c1.392-1.705 2.437-3.757 2.823-6.038 1.69-.439 2.654-2.184 3.012-3.66.047.001.088.004.137.004.867 0 1.916-.123 2.94-.542.007-.002.012-.007.019-.009.587-.242 1.165-.58 1.696-1.054 1.574-1.406 2.373-3.636 2.373-6.629 0-8.897-10.009-17-21-17-7.538 0-10.382 3.197-11.443 5.363-.378.161-.765.372-1.141.681-1.592 1.305-2.402 3.624-2.413 6.89v.004c-.001.022-.003.041-.003.062v7 1.709c-.492.334-1 .992-1 2.291 0 1.51.97 4.31 3.17 4.888.382 2.343 1.44 4.382 2.83 6.053v5.279l-7.668 1.918c-4.906 1.225-8.332 5.613-8.332 10.67v10.192c0 .553.448 1 1 1s1-.447 1-1v-10.192c0-4.137 2.803-7.728 6.817-8.731l7.981-1.995c1.126.766 4.488 2.831 7.996 2.91l7.206 2.701v15.307c0 .553.448 1 1 1s1-.447 1-1v-16c0-.417-.259-.79-.649-.937l-4.629-1.736c2.061-.697 3.744-1.747 4.479-2.247l7.981 1.995c4.015 1.005 6.818 4.596 6.818 8.733v10.192c0 .553.448 1 1 1s1-.447 1-1v-10.192c0-5.057-3.426-9.445-8.332-10.671zm-23.668-5.203c1.983 1.643 4.204 2.678 6 2.971v3.022c-2.584-.333-5.058-1.823-6-2.45zm8 2.984c1.909-.283 4.086-1.336 6-2.951v3.51c-.942.627-3.416 2.117-6 2.45zm-12.219-18.191c-.267-.126-.527-.215-.781-.28v-1.178c.322-.468 1.025-.958 2.418-1.363-.488 1.245-1.176 2.24-1.637 2.821zm-.781-4.005v-4.456c.94-1.573 4.475-4.266 12-4.266s11.06 2.693 12 4.266v4.456c-2.174-1.189-6.001-1.722-12-1.722s-9.826.533-12 1.722zm24 2.547v1.178c-.254.065-.515.154-.783.28-.461-.578-1.148-1.571-1.636-2.822 1.393.405 2.097.896 2.419 1.364zm0 6.229v-2.921c.487-.242.802-.256.872-.218.02.011.128.175.128.641 0 .708-.374 1.847-1 2.498zm-22.341-18.887c.975-.819 2.088-.64 2.154-.629.538.106 1.061-.248 1.167-.786.108-.542-.243-1.068-.784-1.177-.002 0-.021-.003-.026-.004 1.272-1.483 3.799-3.015 8.83-3.015 10.875 0 19 7.919 19 15 0 1.98-.397 3.496-1.171 4.535-.159-2.309-1.31-4.429-2.122-5.242-.391-.391-1.023-.391-1.414 0s-.391 1.023 0 1.414c.641.642 1.895 3.055 1.45 5.276-.634.194-1.271.253-1.819.249-.156-.801-.542-1.263-.925-1.523v-1.709-7c0-.011-.006-.019-.006-.03-.002-.067-.024-.131-.04-.197-.016-.065-.024-.13-.051-.189-.005-.01-.003-.021-.008-.03-.12-.241-.287-.503-.493-.775.777.057 1.348.19 1.358.193.08.018.161.028.24.028.449 0 .858-.304.971-.759.133-.536-.192-1.077-.727-1.211-.085-.021-1.97-.474-3.917-.162-.944-.644-2.152-1.255-3.639-1.748.745-.114 1.303-.12 1.314-.12.552-.002.999-.45.998-1.001 0-.552-.447-.999-.999-.999-.124 0-2.91.017-4.958 1.282-1.222-.176-2.56-.282-4.042-.282-.77 0-1.49.035-2.189.086 1.17-.783 2.414-1.111 2.433-1.116.535-.135.859-.677.726-1.212-.134-.536-.676-.862-1.213-.728-.151.038-3.536.915-5.147 3.484-2.842.579-4.902 1.578-6.309 2.627.273-1.137.726-2 1.358-2.53zm-2.531 15.748c.07-.039.384-.024.872.218v2.921c-.626-.651-1-1.79-1-2.498 0-.466.108-.63.128-.641zm2.872.027c.607-.688 2.01-2.501 2.658-4.952 1.768-.266 4.149-.434 7.342-.434s5.574.168 7.342.434c.648 2.451 2.051 4.263 2.658 4.951v3.615c0 5.701-5.678 11-10 11-3.423 0-10-4.646-10-11z"></path><path d="m18 57c-.552 0-1 .447-1 1v5c0 .553.448 1 1 1s1-.447 1-1v-5c0-.553-.448-1-1-1z"></path><path d="m46 57c-.552 0-1 .447-1 1v5c0 .553.448 1 1 1s1-.447 1-1v-5c0-.553-.448-1-1-1z"></path><circle cx="36" cy="50" r="1"></circle><circle cx="28" cy="50" r="1"></circle><circle cx="36" cy="56" r="1"></circle><circle cx="28" cy="56" r="1"></circle><circle cx="36" cy="62" r="1"></circle><circle cx="28" cy="62" r="1"></circle></g></svg>