<svg fill="#fff" viewBox="0 -32 512 512" xmlns="http://www.w3.org/2000/svg"><path d="m504.5 432.871094h-24.5625v-178.035156c13.953125-2.449219 24.046875-11.621094 24.046875-22.882813v-16.03125c0-.929687-.175781-1.808594-.480469-2.628906l.003906-.007813-23.570312-62.851562v-38.722656c0-8.554688-6.960938-15.515626-15.515625-15.515626h-416.839844c-8.558593 0-15.515625 6.960938-15.515625 15.515626v38.722656l-23.574218 62.851562.007812.007813c-.308594.820312-.484375 1.703125-.484375 2.628906v16.03125c0 11.261719 10.097656 20.433594 24.050781 22.882813v178.035156h-24.566406c-4.140625 0-7.5 3.359375-7.5 7.5s3.359375 7.5 7.5 7.5h497c4.140625 0 7.5-3.359375 7.5-7.5s-3.359375-7.5-7.5-7.5zm-409.339844-41.113282h81.195313v41.113282h-81.195313zm72.148438-168.335937h33.09375v8.53125c0 3.476563-6.445313 8.53125-16.546875 8.53125-10.101563 0-16.546875-5.054687-16.546875-8.53125zm24.046875 31.414063c6.601562-1.160157 12.335937-3.824219 16.546875-7.503907.175781.152344.347656.308594.527344.453125 0 .066406-.011719.132813-.011719.199219v136.273437c0 4.140626 3.359375 7.5 7.5 7.5h208.421875c4.140625 0 7.5-3.359374 7.5-7.5v-129.421874c6.597656-1.160157 12.332031-3.824219 16.546875-7.503907 4.210937 3.679688 9.945312 6.34375 16.546875 7.503907v178.035156h-273.578125zm105.242187-22.882813c0 3.476563-6.449218 8.53125-16.546875 8.53125-10.101562 0-16.550781-5.054687-16.550781-8.53125v-8.53125h33.097656zm-16.550781 23.53125c9.738281 0 18.304687-3.136719 24.050781-8.152344 5.742188 5.015625 14.308594 8.152344 24.046875 8.152344 9.734375 0 18.304688-3.136719 24.046875-8.152344 5.742188 5.015625 14.3125 8.152344 24.046875 8.152344 9.738281 0 18.308594-3.136719 24.050781-8.152344 4.214844 3.679688 9.945313 6.34375 16.546876 7.503907v89.859374h-193.417969v-90.054687c2.707031.546875 5.5625.84375 8.53125.84375 9.738281 0 18.308593-3.136719 24.050781-8.152344 5.742188 5.015625 14.3125 8.152344 24.046875 8.152344zm64.644531-23.53125c0 3.476563-6.445312 8.53125-16.546875 8.53125-10.101562 0-16.546875-5.054687-16.546875-8.53125v-8.53125h33.097656v8.53125zm48.097656 0c0 3.476563-6.445312 8.53125-16.546874 8.53125-10.101563 0-16.546876-5.054687-16.546876-8.53125v-8.53125h33.09375zm48.097657 0c0 3.476563-6.445313 8.53125-16.546875 8.53125-10.101563 0-16.550782-5.054687-16.550782-8.53125v-8.53125h33.097657zm-217.46875 127.742187h193.421875v17.0625h-193.421875zm25.082031-127.742187c0 3.476563-6.445312 8.53125-16.546875 8.53125s-16.550781-5.054687-16.550781-8.53125v-8.53125h33.097656zm240.484375 0c0 3.476563-6.449219 8.53125-16.546875 8.53125-10.101562 0-16.550781-5.054687-16.550781-8.53125v-8.53125h33.097656zm-441.402344-120.757813h416.839844c.28125 0 .515625.230469.515625.515626v32.578124h-8.535156c-4.140625 0-7.5 3.359376-7.5 7.5 0 4.144532 3.359375 7.5 7.5 7.5h10.835937l18.421875 49.132813h-459.320312l18.421875-49.132813h379.574219c4.144531 0 7.5-3.355468 7.5-7.5 0-4.140624-3.355469-7.5-7.5-7.5h-377.273438v-32.578124c0-.285157.234375-.515626.519531-.515626zm71.628907 112.226563h33.09375v8.53125c0 3.476563-6.445313 8.53125-16.546876 8.53125-10.101562 0-16.546874-5.054687-16.546874-8.53125zm-31.550782 17.0625c-10.101562 0-16.546875-5.054687-16.546875-8.53125v-8.53125h33.097657v8.53125c0 3.476563-6.449219 8.53125-16.550782 8.53125zm-64.644531-8.53125v-8.53125h33.097656v8.53125c0 3.476563-6.449219 8.53125-16.546875 8.53125-10.101562 0-16.550781-5.054687-16.550781-8.53125zm24.046875 22.882813c6.601562-1.160157 12.335938-3.824219 16.550781-7.503907 4.210938 3.679688 9.945313 6.34375 16.546875 7.503907v81.328124c0 4.140626 3.359375 7.5 7.5 7.5s7.5-3.359374 7.5-7.5v-81.328124c6.601563-1.160157 12.335938-3.824219 16.546875-7.503907 5.742188 5.015625 14.3125 8.152344 24.050781 8.152344 9.734376 0 18.304688-3.136719 24.046876-8.152344 4.214843 3.679688 9.949218 6.34375 16.546874 7.503907v121.921874h-81.191406v-8.53125c0-4.140624-3.355468-7.5-7.5-7.5-4.140625 0-7.5 3.359376-7.5 7.5v64.644532h-33.097656zm0 0"></path><path d="m104.363281 79.128906c8.613281 0 16.847657-4.113281 22.027344-11.007812 2.488281-3.3125 1.820313-8.011719-1.492187-10.5-3.3125-2.488282-8.011719-1.820313-10.5 1.488281-2.394532 3.191406-6.054688 5.019531-10.035157 5.019531-6.917969 0-12.542969-5.625-12.542969-12.539062v-24.050782c0-6.914062 5.625-12.539062 12.542969-12.539062 3.984375 0 7.644531 1.832031 10.039063 5.027344 2.488281 3.3125 7.1875 3.984375 10.5 1.5 3.316406-2.488282 3.984375-7.1875 1.5-10.5-5.179688-6.90625-13.417969-11.027344-22.039063-11.027344-15.1875 0-27.542969 12.355469-27.542969 27.542969v24.046875c0 15.183594 12.355469 27.539062 27.542969 27.539062zm0 0"></path><path d="m165.148438 79.128906c15.1875 0 27.542968-12.355468 27.542968-27.539062v-24.050782c0-15.183593-12.355468-27.539062-27.542968-27.539062-15.183594 0-27.539063 12.355469-27.539063 27.539062v24.050782c0 15.183594 12.355469 27.539062 27.539063 27.539062zm-12.539063-51.589844c0-6.914062 5.625-12.539062 12.539063-12.539062 6.917968 0 12.542968 5.625 12.542968 12.539062v24.050782c0 6.914062-5.625 12.539062-12.542968 12.539062-6.914063 0-12.539063-5.625-12.539063-12.539062zm0 0"></path><path d="m213.75 79.128906c4.140625 0 7.5-3.359375 7.5-7.5v-24.5625h16.546875c4.140625 0 7.5-3.359375 7.5-7.5 0-4.144531-3.359375-7.5-7.5-7.5h-16.546875v-17.066406h24.5625c4.140625 0 7.5-3.359375 7.5-7.5s-3.359375-7.5-7.5-7.5h-32.0625c-4.144531 0-7.5 3.359375-7.5 7.5v64.128906c0 4.140625 3.355469 7.5 7.5 7.5zm0 0"></path><path d="m333.363281 79.128906h32.0625c4.144531 0 7.5-3.359375 7.5-7.5s-3.355469-7.5-7.5-7.5h-24.5625v-17.0625h16.546875c4.144532 0 7.5-3.359375 7.5-7.5 0-4.144531-3.355468-7.5-7.5-7.5h-16.546875v-17.066406h24.5625c4.144531 0 7.5-3.359375 7.5-7.5s-3.355469-7.5-7.5-7.5h-32.0625c-4.144531 0-7.5 3.359375-7.5 7.5v64.128906c0 4.140625 3.355469 7.5 7.5 7.5zm0 0"></path><path d="m274.035156 79.128906c4.144532 0 7.5-3.359375 7.5-7.5v-24.5625h16.550782c4.140624 0 7.5-3.359375 7.5-7.5 0-4.144531-3.359376-7.5-7.5-7.5h-16.550782v-17.066406h24.566406c4.140626 0 7.5-3.359375 7.5-7.5s-3.359374-7.5-7.5-7.5h-32.066406c-4.140625 0-7.5 3.359375-7.5 7.5v64.128906c0 4.140625 3.359375 7.5 7.5 7.5zm0 0"></path><path d="m393.609375 79.128906h32.066406c4.140625 0 7.5-3.359375 7.5-7.5s-3.359375-7.5-7.5-7.5h-24.566406v-17.0625h16.546875c4.144531 0 7.5-3.359375 7.5-7.5 0-4.144531-3.355469-7.5-7.5-7.5h-16.546875v-17.066406h24.566406c4.140625 0 7.5-3.359375 7.5-7.5s-3.359375-7.5-7.5-7.5h-32.066406c-4.140625 0-7.5 3.359375-7.5 7.5v64.128906c0 4.140625 3.359375 7.5 7.5 7.5zm0 0"></path></svg>