<svg fill="#fff" id="Capa_1" enable-background="new 0 0 512 512" height="512" viewBox="0 0 512 512" width="512" xmlns="http://www.w3.org/2000/svg"><g><path d="m256 395.257c3.004 0 6.009-1.143 8.297-3.43 0 0 0 0 0-.001l65.593-65.593c18.833-18.833 18.833-49.475 0-68.307-18.831-18.832-49.474-18.833-68.307 0l-5.583 5.583-5.583-5.583c-18.832-18.833-49.475-18.832-68.307 0-18.833 18.832-18.833 49.475 0 68.307l65.593 65.594c2.288 2.286 5.293 3.43 8.297 3.43zm-63.284-126.725c6.492-6.492 15.019-9.738 23.547-9.738s17.055 3.246 23.547 9.738l10.886 10.886c2.929 2.929 7.678 2.929 10.606 0l10.886-10.886c12.984-12.983 34.11-12.983 47.094 0 12.984 12.984 12.984 34.11 0 47.094l-63.282 63.284-63.284-63.284c-12.984-12.983-12.984-34.11 0-47.094z"></path><path d="m91.99 307.577c.404 3.854 3.659 6.718 7.45 6.718.262 0 .525-.014.791-.042 4.12-.432 7.109-4.122 6.677-8.241l-7.97-76.014h314.124l-18.772 179.045h-49.908c-4.142 0-7.5 3.358-7.5 7.5s3.358 7.5 7.5 7.5h48.335l-6.006 57.282c-.938 8.936-8.42 15.675-17.405 15.675h-226.612c-8.985 0-16.467-6.739-17.405-15.675l-6.006-57.282h192.412c4.142 0 7.5-3.358 7.5-7.5s-3.358-7.5-7.5-7.5h-193.984l-7.366-70.253c-.432-4.119-4.118-7.109-8.241-6.677-4.119.432-7.109 4.122-6.677 8.241l14.944 142.535c1.741 16.596 15.636 29.111 32.323 29.111h226.612c16.687 0 30.582-12.515 32.323-29.111l35.737-340.848h12.367c12.407 0 22.5-10.093 22.5-22.5v-41.673c0-12.407-10.093-22.5-22.5-22.5h-24.986v-32.868c0-12.407-10.093-22.5-22.5-22.5h-292.494c-12.407 0-22.5 10.093-22.5 22.5v32.868h-24.986c-12.407 0-22.5 10.093-22.5 22.5v41.674c0 12.407 10.093 22.5 22.5 22.5h12.367zm322.644-92.578h-317.268l-7.649-72.957h332.568zm42.599-95.458c0 4.136-3.364 7.5-7.5 7.5h-19.092c-.01 0-.021 0-.031 0h-349.221c-.01 0-.019 0-.029 0h-19.093c-4.136 0-7.5-3.364-7.5-7.5v-41.673c0-4.136 3.364-7.5 7.5-7.5h83.097c4.142 0 7.5-3.358 7.5-7.5s-3.358-7.5-7.5-7.5h-43.111v-32.868c0-4.136 3.364-7.5 7.5-7.5h292.494c4.136 0 7.5 3.364 7.5 7.5v32.868h-231.697c-4.142 0-7.5 3.358-7.5 7.5s3.358 7.5 7.5 7.5h271.683c4.136 0 7.5 3.364 7.5 7.5z"></path></g></svg>