<?xml version='1.0' encoding='iso-8859-1'?>
<!-- Uploaded to: SVG Repo, www.svgrepo.com, Generator: SVG Repo Mixer Tools -->
<svg fill="#000000" height="800px" width="800px" version="1.1" xmlns="http://www.w3.org/2000/svg" viewBox="0 0 470 470" xmlns:xlink="http://www.w3.org/1999/xlink" enable-background="new 0 0 470 470">
  <g>
    <path d="m155.821,289.125c8.536-8.557 11.798-21.088 9.184-35.29-2.431-13.201-9.76-26.461-20.637-37.338-13.463-13.463-30.862-21.501-46.545-21.501-10.481,0-19.504,3.479-26.095,10.06-8.586,8.608-11.847,21.138-9.233,35.34 2.43,13.201 9.759,26.46 20.636,37.338 13.464,13.463 30.864,21.501 46.546,21.501 10.481,0 19.505-3.479 26.095-10.06 0.006-0.006 0.013-0.012 0.049-0.05zm-22.059-62.021c8.749,8.749 14.605,19.207 16.491,29.447 1.081,5.872 0.738,11.169-0.933,15.528l-60.53-60.53c3.179-1.211 6.42-1.553 9.033-1.553 11.792,0 25.227,6.395 35.939,17.108zm-4.085,57.131c-11.791,0-25.227-6.396-35.938-17.108-8.749-8.749-14.605-19.207-16.491-29.447-1.081-5.872-0.738-11.169 0.933-15.528l60.53,60.53c-3.181,1.211-6.421,1.553-9.034,1.553z"/>
    <path d="m398.321,289.125c8.536-8.557 11.798-21.088 9.184-35.29-2.431-13.201-9.76-26.461-20.637-37.338-13.463-13.463-30.862-21.501-46.545-21.501-10.481,0-19.503,3.479-26.095,10.06-8.586,8.608-11.847,21.138-9.233,35.34 2.43,13.201 9.759,26.46 20.636,37.338 13.464,13.463 30.864,21.501 46.546,21.501 10.481,0 19.505-3.479 26.095-10.06 0.006-0.006 0.013-0.012 0.049-0.05zm-22.059-62.021c8.749,8.749 14.605,19.207 16.491,29.447 1.081,5.872 0.738,11.169-0.933,15.528l-60.53-60.53c3.179-1.211 6.42-1.553 9.033-1.553 11.792,0 25.227,6.395 35.939,17.108zm-4.085,57.131c-11.791,0-25.227-6.396-35.938-17.108-8.749-8.749-14.605-19.207-16.491-29.447-1.081-5.872-0.738-11.169 0.933-15.528l60.53,60.53c-3.181,1.211-6.421,1.553-9.034,1.553z"/>
    <path d="m462.5,138.558c4.143,0 7.5-3.358 7.5-7.5v-30c0-4.142-3.357-7.5-7.5-7.5h-13.76l-8.387-33.549c-0.835-3.339-3.835-5.681-7.276-5.681h-153.654c-3.441,0-6.441,2.342-7.276,5.681l-8.387,33.549h-13.76c-4.143,0-7.5,3.358-7.5,7.5v30c0,4.142 3.357,7.5 7.5,7.5h2.914l14.757,174.615h-65.342l14.757-174.615h2.914c4.143,0 7.5-3.358 7.5-7.5v-30c0-4.142-3.357-7.5-7.5-7.5h-13.76l-8.387-33.549c-0.835-3.339-3.835-5.681-7.276-5.681h-153.654c-3.441,0-6.441,2.342-7.276,5.681l-8.387,33.549h-13.76c-4.143,0-7.5,3.358-7.5,7.5v30c0,4.142 3.357,7.5 7.5,7.5h2.914l14.757,174.615h-17.671c-4.143,0-7.5,3.358-7.5,7.5v30c0,4.142 3.357,7.5 7.5,7.5h13.884l3.016,35.685c1.017,12.029 11.664,21.815 23.736,21.815h131.227c12.072,0 22.72-9.786 23.736-21.814l3.016-35.686h57.769l3.016,35.685c1.017,12.029 11.664,21.815 23.736,21.815h131.227c12.072,0 22.72-9.786 23.736-21.814l3.016-35.686h13.885c4.143,0 7.5-3.358 7.5-7.5v-30c0-4.142-3.357-7.5-7.5-7.5h-17.671l14.757-174.615h2.914zm-205-30h11.958c0.107,0.002 0.217,0.002 0.326,0h143.101c4.143,0 7.5-3.358 7.5-7.5s-3.357-7.5-7.5-7.5h-133.664l6.058-24.23h141.943l8.387,33.549c0.835,3.339 3.835,5.681 7.276,5.681h12.115v15h-195.056c-0.003,0-2.444,0-2.444,0v-15zm-242.5,0h11.958c0.107,0.002 0.217,0.002 0.326,0h143.101c4.143,0 7.5-3.358 7.5-7.5s-3.357-7.5-7.5-7.5h-133.664l6.058-24.23h141.943l8.387,33.549c0.835,3.339 3.835,5.681 7.276,5.681h12.115v15h-195.057c-0.003,0-2.443,0-2.443,0v-15zm187.031,30l-2.324,27.5h-171.915l-2.324-27.5h176.563zm-172.971,42.5h169.38l-11.165,132.115h-147.05l-11.165-132.115zm401.592,211.537c-0.363,4.303-4.471,8.078-8.789,8.078h-131.226c-4.318,0-8.426-3.774-8.789-8.078l-2.909-34.422h154.624l-2.911,34.422zm24.348-49.422h-13.398c-0.019,0-170.667,0-170.667,0-0.021,0-0.042,0-0.062,0h-71.772c-0.019,0-110.823,0-110.823,0-4.143,0-7.5,3.358-7.5,7.5s3.357,7.5 7.5,7.5h102.784l-2.909,34.422c-0.363,4.303-4.471,8.078-8.789,8.078h-131.227c-4.318,0-8.426-3.774-8.789-8.078l-2.909-34.422h21.839c4.143,0 7.5-3.358 7.5-7.5s-3.357-7.5-7.5-7.5h-29.844c-0.021,0-0.042,0-0.062,0h-13.372v-15h18.313c0.022,0 160.852,0 160.852,0 0.022,0 81.648,0 81.648,0 0.022,0 160.852,0 160.852,0 0.022,0 18.335,0 18.335,0v15zm-172.275-30l-11.165-132.115h169.38l-11.165,132.115h-147.05zm159.483-147.115h-171.916l-2.324-27.5h176.563l-2.323,27.5z"/>
  </g>
</svg>