<svg fill="#b99272" id="Capa_1" enable-background="new 0 0 512 512" height="512" viewBox="0 0 512 512" width="512" xmlns="http://www.w3.org/2000/svg"><g id="XMLID_495_"><g id="XMLID_152_"><path id="XMLID_1239_" d="m256.013 124c-.009 0-.018 0-.026 0-37.878.008-68.693 35.34-68.693 78.77 0 12.347 2.497 24.035 6.932 34.448-21.372-3.538-42.859 2.027-57.978 17.146-26.787 26.788-23.595 73.568 7.116 104.281 14.671 14.67 33.432 23.593 52.828 25.125 1.993.157 3.968.235 5.924.235 17.658 0 33.655-6.369 45.53-18.244 3.191-3.191 5.975-6.685 8.354-10.423 2.379 3.738 5.163 7.232 8.353 10.423 11.876 11.876 27.871 18.244 45.53 18.244 1.955 0 3.932-.078 5.924-.235 19.397-1.531 38.157-10.454 52.828-25.125 30.711-30.712 33.903-77.493 7.116-104.281-15.12-15.119-36.607-20.683-57.978-17.145 4.435-10.413 6.932-22.101 6.932-34.448.001-43.43-30.813-78.763-68.692-78.771zm48.693 78.77c0 30.681-19.589 55.931-44.466 58.533-5.493-6.83-8.482-15.258-8.482-24.149 0-10.318 4.018-20.018 11.313-27.314 11.073-11.074 17.171-25.796 17.171-41.456 0-6.377-1.028-12.592-2.974-18.475 16.228 9.546 27.438 29.652 27.438 52.861zm-52.946-58.533c5.493 6.83 8.482 15.258 8.482 24.149 0 10.318-4.018 20.018-11.313 27.313-11.073 11.074-17.171 25.796-17.171 41.456 0 6.377 1.028 12.592 2.974 18.475-16.228-9.545-27.438-29.651-27.438-52.86 0-30.681 19.589-55.931 44.466-58.533zm-25.372 131.385c11.308 11.307 18.172 25.605 19.329 40.259.458 5.809-.027 11.379-1.372 16.556-9.648-19.178-29.505-32.375-52.397-32.375-19.867 0-36.272-15.077-38.39-34.388 19.43-15.751 51.136-11.747 72.83 9.948zm-28.621 88.21c-14.654-1.157-28.952-8.021-40.26-19.329-16.426-16.427-22.714-38.596-17.964-56.829 9.646 19.186 29.507 32.389 52.405 32.389 19.869 0 36.275 15.079 38.391 34.393-8.691 7.042-20.092 10.358-32.572 9.376zm156.726-19.33c-11.308 11.308-25.605 18.172-40.26 19.329-12.492.983-23.883-2.333-32.572-9.376 2.116-19.314 18.523-34.393 38.391-34.393 22.898 0 42.759-13.203 52.405-32.389 4.75 18.234-1.538 40.403-17.964 56.829zm-24.38-88.39c10.477 0 20.421 3.137 28.332 9.547-2.112 19.319-18.521 34.404-38.392 34.404-22.892 0-42.749 13.196-52.397 32.374-1.345-5.177-1.831-10.746-1.372-16.556 1.157-14.654 8.021-28.952 19.329-40.259 12.861-12.862 29.243-19.51 44.5-19.51z"></path><path id="XMLID_1300_" d="m437.02 74.981c-48.353-48.353-112.64-74.981-181.02-74.981s-132.667 26.628-181.02 74.981c-48.351 48.352-74.98 112.639-74.98 181.019s26.629 132.667 74.98 181.019c48.353 48.353 112.64 74.981 181.02 74.981s132.667-26.628 181.02-74.981c48.351-48.352 74.98-112.639 74.98-181.019s-26.629-132.667-74.98-181.019zm-181.02 417.019c-130.131 0-236-105.869-236-236s105.869-236 236-236 236 105.869 236 236-105.869 236-236 236z"></path><path id="XMLID_1301_" d="m419.487 124.186c-29.55-36.606-70.94-62.502-116.547-72.918-5.388-1.229-10.745 2.139-11.976 7.522-1.229 5.384 2.139 10.746 7.522 11.976 86.855 19.835 147.514 96.006 147.514 185.234 0 104.766-85.233 190-190 190s-190-85.234-190-190c0-89.227 60.659-165.398 147.512-185.233 5.384-1.229 8.752-6.591 7.522-11.976-1.229-5.385-6.592-8.752-11.976-7.522-45.606 10.416-86.996 36.312-116.546 72.918-29.993 37.157-46.512 83.969-46.512 131.813 0 115.794 94.206 210 210 210s210-94.206 210-210c0-47.844-16.519-94.657-46.513-131.814z"></path><path id="XMLID_1411_" d="m256 66c2.63 0 5.21-1.07 7.069-2.93 1.861-1.86 2.931-4.44 2.931-7.07s-1.07-5.21-2.931-7.07c-1.859-1.86-4.439-2.93-7.069-2.93s-5.21 1.07-7.07 2.93-2.93 4.44-2.93 7.07 1.069 5.21 2.93 7.07c1.86 1.86 4.44 2.93 7.07 2.93z"></path></g></g></svg>