<!--?xml version="1.0" encoding="iso-8859-1"?-->
<!-- Generator: Adobe Illustrator 19.0.0, SVG Export Plug-In . SVG Version: 6.00 Build 0)  -->
<svg fill="#b99272" version="1.1" id="Capa_1" xmlns="http://www.w3.org/2000/svg" xmlns:xlink="http://www.w3.org/1999/xlink" x="0px" y="0px" viewBox="0 0 512 512" style="enable-background:new 0 0 512 512;" xml:space="preserve">
<g>
	<g>
		<path d="M504.294,246.9c-0.571-1.858-1.842-3.422-3.543-4.361c-21.689-11.977-48.583-17.393-78.375-15.877
			c5.968-15.512,9.574-31.428,10.558-47.16c2.264-36.199-9.52-67.152-33.183-87.158c-23.663-20.005-56.144-26.475-91.461-18.22
			c-24.904,5.821-49.138,18.52-70.408,36.618c-1.377-2.054-2.808-4.077-4.305-6.043c-2.046-2.688-4.16-5.375-6.283-7.987
			c-13.478-16.591-28.431-31.62-44.443-44.668c-3.21-2.617-7.935-2.135-10.551,1.076c-2.617,3.211-2.135,7.936,1.076,10.551
			c15.219,12.403,29.443,26.701,42.278,42.5c2.023,2.49,4.039,5.052,5.989,7.614c1.785,2.345,3.479,4.768,5.064,7.245
			c-1.019,1.012-2.029,2.04-3.03,3.078c-0.053,0.055-0.106,0.111-0.16,0.166c-17.256,17.89-31.301,39.011-40.596,62.088
			c-0.312,0.771-0.626,1.541-0.928,2.316c-2.072-0.511-4.146-0.958-6.222-1.342L157.31,164.61
			c4.956-7.891,19.067-33.2,18.264-64.458c-0.106-4.141-3.579-7.406-7.69-7.305c-4.141,0.106-7.412,3.549-7.305,7.69
			c0.591,23.019-8.093,42.24-13.339,51.679l-26.735-32.909c5.362-9.214,15.715-30.457,15.054-56.213
			c-0.106-4.141-3.554-7.412-7.69-7.305c-4.141,0.106-7.412,3.549-7.305,7.69c0.464,18.072-5.658,33.883-10.315,43.204L84.64,75.158
			c-2.612-3.215-7.336-3.704-10.549-1.092c-3.215,2.612-3.704,7.335-1.092,10.549l25.628,31.546
			c-10.041,2.657-26.723,5.406-44.417,1.227c-4.034-0.953-8.071,1.544-9.023,5.575s1.544,8.071,5.575,9.023
			c7.811,1.845,15.411,2.554,22.482,2.554c15.624,0,28.654-3.46,35.623-5.774l26.736,32.908
			c-10.313,3.203-30.904,7.766-53.317,2.472c-4.034-0.953-8.07,1.544-9.022,5.575s1.544,8.071,5.575,9.022
			c8.516,2.011,16.809,2.785,24.537,2.785c19.901-0.001,36.008-5.131,42.297-7.46l9.386,11.553c-0.477,0.01-0.953,0.033-1.429,0.05
			c-11.639,0.417-23.18,2.936-33.934,7.414c-15.306,6.372-28.794,16.588-39.897,30.085c-1.105-1.314-2.201-2.64-3.278-3.966
			c-27.788-34.205-46.786-72.283-54.939-110.116c-7.478-34.7-4.884-66.759,7.273-90.712c34.686-9.384,78.618,0.816,121.125,28.25
			c3.479,2.246,8.122,1.246,10.368-2.235c2.246-3.48,1.246-8.122-2.235-10.368C110.665,3.405,60.877-7.216,21.51,4.888
			C19.652,5.459,18.09,6.73,17.15,8.43C-14.109,65.032,5.518,155.595,64.877,228.662c1.921,2.365,3.899,4.721,5.885,7.029
			c-4.89,7.759-9.128,16.313-12.639,25.59c-13.757,36.347-14.712,79.61-2.689,121.823c12.021,42.208,35.629,78.473,66.473,102.114
			c23.038,17.658,48.1,26.781,72.648,26.781c9.021,0,17.972-1.232,26.729-3.726c16.053-4.573,30.427-13.103,42.566-25.017
			c17.791,12.381,37.855,19.319,58.436,20.104c30.436,1.162,58.384-12.694,81.511-31.482c20.457-16.619,38.661-35.198,54.106-55.22
			c2.53-3.28,1.922-7.99-1.357-10.519s-7.989-1.922-10.519,1.357c-14.738,19.106-32.129,36.85-51.688,52.74
			c-20.703,16.822-44.092,29.181-71.481,28.135c-17.129-0.654-33.914-6.296-48.969-16.398c6.838-8.778,12.706-18.851,17.465-30.078
			c13.409,7.238,36.8,17.018,65.276,17.018c5.029,0,10.645-1.49,10.485-7.731c-0.106-4.141-3.543-7.416-7.69-7.305
			c-28.209,0.726-51.652-9.989-62.833-16.236c0.807-2.566,1.555-5.16,2.241-7.783l30.883-25.09
			c7.805,4.971,34.502,20.24,67.947,20.24c4.904,0,10.306-1.721,10.105-7.726c-0.106-4.141-3.569-7.402-7.69-7.305
			c-26.211,0.674-47.945-9.53-58.002-15.252l37.322-30.32c9.486,5.583,31.804,16.702,59.148,16.702
			c4.878,0,10.031-1.863,9.875-7.723c-0.106-4.141-3.546-7.411-7.69-7.305c-20.634,0.532-38.594-6.703-48.744-11.903l35.453-28.801
			c3.215-2.612,3.704-7.335,1.092-10.549c-2.612-3.215-7.335-3.704-10.549-1.092l-35.475,28.819
			c-2.475-8.983-5.201-23.373-3.474-39.416c0.213-0.217,0.426-0.434,0.638-0.651c14.437-14.768,26.693-31.805,35.881-50.31
			c28.782-2.642,54.651,1.503,75.254,12.057c10.133,37.029-0.121,84.061-28.383,129.645c-2.183,3.52-1.099,8.144,2.422,10.325
			c3.521,2.183,8.144,1.098,10.325-2.422C506.468,341.309,517.083,288.5,504.294,246.9z M196.683,192.334
			c9.709-24.136,25.651-46.829,44.654-64.565c0.008-0.007,0.014-0.017,0.022-0.024c43.997-41.051,101.373-53.871,139.572-30.528
			c-1.485,0.866-2.933,1.735-4.354,2.606c-0.11,0.067-0.223,0.135-0.333,0.202c-25.6,15.755-46.525,37.516-60.152,64.409
			c-0.019,0.037-0.036,0.073-0.055,0.109c-15.241,30.467-24.839,63.704-46.198,90.843c-0.08,0.102-0.161,0.205-0.241,0.307
			c-11.16-16.967-24.591-31.675-39.781-43.317c-10.804-8.281-22.054-14.683-33.486-19.149
			C196.449,192.929,196.563,192.631,196.683,192.334z M211.835,495.177c-26.432,5.639-54.91-2.017-80.803-21.864
			c-28.303-21.694-50.028-55.19-61.173-94.319c-15.061-52.88-7.478-105.161,16.282-139.333c0.081-0.104,0.168-0.202,0.245-0.311
			c10.137-14.479,22.985-25.303,37.583-31.769c-0.015,0.215-0.022,0.421-0.036,0.636c-3.083,46.785,13.96,91.086,39.686,129.414
			c27.231,40.573,45.578,86.353,47.862,135.517C211.82,480.485,211.928,487.833,211.835,495.177z M257.365,468.268
			c-0.145,0.16-0.277,0.329-0.406,0.5c-8.696,9.513-18.828,16.839-30.093,21.647c0-6.185-0.144-12.371-0.45-18.549
			c-1.283-25.901-5.872-51.332-14.913-75.685c-1.527-4.114-3.166-8.186-4.913-12.21c-8.325-19.192-18.875-37.343-30.517-54.698
			c-14.742-21.974-28.865-44.762-34.333-71.024c-3.773-18.127-4.01-36.826-2.361-55.215c0.015-0.166,0.035-0.339,0.05-0.505
			c0.196-0.043,0.392-0.09,0.588-0.132c14.814-3.133,30.077-1.94,44.475,2.612c55.761,17.628,90.938,76.388,101.507,130.896
			C295.903,386.979,284.93,437.697,257.365,468.268z M303.21,396.977c2.286-18.359,1.874-37.595-1.24-56.946
			c0.621-0.173,1.24-0.359,1.859-0.541c2.717-0.797,5.409-1.671,8.077-2.619c0.018,22.148,5.824,39.697,8.341,46.266L303.21,396.977
			z M332.624,373.084c-2.705-8.44-6.57-24.137-5.536-42.508c0.021-0.256,2.215-1.08,2.441-1.192
			c8.654-4.289,16.925-9.333,24.765-14.972c3.165-2.277,6.254-4.664,9.268-7.136c0.517,15.689,4.056,28.588,6.383,35.489
			L332.624,373.084z M403.777,232.017c-14.342,30.633-37.495,57.443-66.08,75.592c-10.898,6.92-22.627,12.595-34.934,16.524
			c-0.217,0.069-3.675,1.174-3.692,1.122c-2.25-9.699-5.138-19.249-8.667-28.56c-3.602-9.525-7.811-18.669-12.576-27.338
			c0.124-0.148,0.242-0.295,0.364-0.443c25.528-30.715,35.564-69.65,54.63-104.028c0.067-0.121,0.134-0.241,0.202-0.361
			c13.833-24.849,36.061-43.606,60.649-57.281c0.041-0.023,0.084-0.045,0.125-0.068C422.95,135.466,425.689,185.211,403.777,232.017
			z"></path>
	</g>
</g>
<g>
</g>
<g>
</g>
<g>
</g>
<g>
</g>
<g>
</g>
<g>
</g>
<g>
</g>
<g>
</g>
<g>
</g>
<g>
</g>
<g>
</g>
<g>
</g>
<g>
</g>
<g>
</g>
<g>
</g>
</svg>
