<svg height="512" viewBox="0 0 60 57" width="512" xmlns="http://www.w3.org/2000/svg"><g id="Page-1" fill="none" fill-rule="evenodd"><g id="054---Coffee" fill="#b99272" fill-rule="nonzero"><path id="Shape" d="m49.5 39c8.643 0 10.288-8.617 10.445-9.59.1842202-1.0982147-.124641-2.221821-.8443241-3.0715673s-1.7771178-1.3393568-2.8906759-1.3384327h-6.4c.1228932-.8008811.1863997-1.6097529.19-2.42v-4.58c0-1.6568542-1.3431458-3-3-3h-34c-1.6568542 0-3 1.3431458-3 3v4.58c.0056295 1.6205665.2450976 3.2318394.711 4.784.1568489.5296411.7133589.8318489 1.243.675s.8318489-.7133589.675-1.243c-.3676065-1.2348729-.5736553-2.5121733-.613-3.8h4.984c.5522847 0 1-.4477153 1-1s-.4477153-1-1-1h-5v-2.996c0-.5522847.4477153-1 1-1h34c.5522847 0 1 .4477153 1 1v3h-25c-.5522847 0-1 .4477153-1 1s.4477153 1 1 1h24.982c-.111421 3.1466281-1.1943354 6.1815831-3.1 8.688-1.768 2.348-4.1 6.544-5.4 13.312h-2.642c-.5522847 0-1 .4477153-1 1s.4477153 1 1 1h13.21c.524442.0005512.9494488.425558.95.95v.11c.0014865.2903863-.1286855.5658067-.354.749l-3.729 2.98c-.1703708.136185-.381889.2105689-.6.211h-12.477c-.5522847 0-1 .4477153-1 1s.4477153 1 1 1h12.48c.670172-.0017662 1.3200478-.230139 1.844-.648l3.736-2.983c.6987158-.5623441 1.1035387-1.4121041 1.1-2.309v-.11c-.0016536-1.6285546-1.3214454-2.9483464-2.95-2.95h-8.525c.982-2.764 3.158-6 7.975-6zm-3.018-6.113c1.3235865-1.765667 2.3076168-3.7618718 2.902-5.887h6.826c.5294089-.0007473 1.0318987.2332841 1.372.639.3375916.3985754.4808247.9264498.391 1.441-.214 1.32-1.63 7.92-8.473 7.92-2.2889956-.0650477-4.5277243.6784808-6.323 2.1.8013694-2.2172906 1.9141913-4.3092611 3.305-6.213z"></path><path id="Shape" d="m20.937 56.98c3.411886-.1186705 6.6420148-1.5672038 9-4.036 2.4760926-2.3347419 3.9353279-5.5491539 4.063-8.95.0628624-2.084304-.7223157-4.1049827-2.176-5.6-3.513-3.489-10.057-2.644-14.583 1.884-2.4761654 2.3352018-3.9356856 5.5498093-4.064 8.951-.0987854 2.0862627.6872224 4.1173785 2.1646568 5.5936706 1.4774344 1.476292 3.5091575 2.2607285 5.5953432 2.1603294zm7.588-5.454c-3.751 3.752-9.026 4.6-11.759 1.885-.053-.054-.09-.12-.141-.176.6407543-.3677089 1.3568915-.5845336 2.094-.634 3.1262489-.2437772 5.6113504-2.7242146 5.861-5.85.1240408-2.2433493 1.9183303-4.0328965 4.162-4.151 1.011459-.0850872 1.9905635-.3978946 2.864-.915.2689689.7387105.4024405 1.5198917.394 2.306-.1430559 2.8658726-1.3881127 5.5655858-3.475 7.535zm-9.872-9.835c1.9793785-2.0957729 4.695283-3.3409657 7.575-3.473 1.5512304-.0511655 3.0582519.5215315 4.184 1.59.053.053.09.119.141.175-.6406833.3680264-1.3568178.5851923-2.094.635-3.125859.2442445-5.610417 2.7245627-5.86 5.85-.1226573 2.2452442-1.9184674 4.0367416-4.164 4.154-1.0116089.0843338-1.9908782.3971939-2.864.915-.2697618-.7391934-.4032544-1.5211756-.394-2.308.1432755-2.866894 1.3886439-5.5675805 3.476-7.538z"></path><path id="Shape" d="m17.092 36.6c.1670712.3216365.4950978.5276965.8573743.5385861.3622764.0108897.7020875-.1750958.8881758-.4861167.1860882-.3110208.1893211-.698386.0084499-1.0124694-1.931-3.524-5.09-5.633-8.453-5.644-.60218905.0009386-1.20245386.0680073-1.79.2-4.995 1.124-8.613 6.717-8.603 13.304-.01 7.433 4.651 13.489 10.393 13.5.6061675.0030523 1.2105037-.0667821 1.8-.208.4591753-.1108204.7781838-.5278249.765-1-.0301659-1.6866772-.6573114-3.3080433-1.77-4.576-.8930664-.9653043-1.38072148-2.2370743-1.362-3.552-.01283129-1.3178226.4746141-2.5914703 1.364-3.564 2.3535365-2.7384686 2.3535365-6.7855314 0-9.524-.641573-.7268243-1.0848485-1.6068311-1.287-2.555.166-.014.3283333-.021.487-.021 2.66.009 5.103 1.687 6.702 4.6zm-6.135 2.73c.0144134 1.3202666-.4739455 2.5965779-1.366 3.57-2.35183892 2.7390976-2.35183892 6.7849024 0 9.524.6429412.7274428 1.0863591 1.6091107 1.287 2.559-.156.013-.315.019-.479.019-4.642-.011-8.407-5.169-8.399-11.502-.008-5.057 2.489-9.545 5.961-11 .26912744 1.210585.83200847 2.336347 1.639 3.278.8912478.9660786 1.3770787 2.2377598 1.357 3.552z"></path><path id="Shape" d="m24.676 3.568c.8159492-.60413994 1.3051142-1.55291303 1.324-2.568 0-.55228475-.4477153-1-1-1s-1 .44771525-1 1c0 .457-.2.653-.675 1.094-.8168414.60394119-1.306491 1.55330701-1.325 2.569.0182651 1.01607186.5074633 1.96601781 1.324 2.571.481.441.676.638.676 1.1s-.2.657-.676 1.1c-.814922.6041191-1.3038915 1.5517744-1.324 2.566 0 .5522847.4477153 1 1 1s1-.4477153 1-1c0-.459.2-.656.676-1.1.8153895-.6050627 1.3043598-1.55382748 1.324-2.569-.0185694-1.01599519-.5077024-1.96581467-1.324-2.571-.476-.441-.676-.638-.676-1.097s.2-.654.676-1.095z"></path><path id="Shape" d="m30.676 3.568c.8159492-.60413994 1.3051142-1.55291303 1.324-2.568 0-.55228475-.4477153-1-1-1s-1 .44771525-1 1c0 .457-.2.653-.675 1.094-.8168414.60394119-1.306491 1.55330701-1.325 2.569.0182651 1.01607186.5074633 1.96601781 1.324 2.571.481.441.676.638.676 1.1s-.2.657-.676 1.1c-.814922.6041191-1.3038915 1.5517744-1.324 2.566 0 .5522847.4477153 1 1 1s1-.4477153 1-1c0-.459.2-.656.676-1.1.8153895-.6050627 1.3043598-1.55382748 1.324-2.569-.0185694-1.01599519-.5077024-1.96581467-1.324-2.571-.476-.441-.676-.638-.676-1.097s.2-.654.676-1.095z"></path><path id="Shape" d="m36.676 3.568c.8159492-.60413994 1.3051142-1.55291303 1.324-2.568 0-.55228475-.4477153-1-1-1s-1 .44771525-1 1c0 .457-.2.653-.675 1.094-.8168414.60394119-1.306491 1.55330701-1.325 2.569.0182651 1.01607186.5074633 1.96601781 1.324 2.571.481.441.676.638.676 1.1s-.2.657-.676 1.1c-.814922.6041191-1.3038915 1.5517744-1.324 2.566 0 .5522847.4477153 1 1 1s1-.4477153 1-1c0-.459.2-.656.676-1.1.8153895-.6050627 1.3043598-1.55382748 1.324-2.569-.0185694-1.01599519-.5077024-1.96581467-1.324-2.571-.476-.441-.676-.638-.676-1.097s.2-.654.676-1.095z"></path></g></g></svg>