<svg fill="#fff" xmlns="http://www.w3.org/2000/svg" version="1.1" xmlns:xlink="http://www.w3.org/1999/xlink" xmlns:svgjs="http://svgjs.com/svg" width="512" height="512" x="0" y="0" viewBox="0 0 64 64" style="enable-background:new 0 0 512 512" xml:space="preserve" class=""><g><path xmlns="http://www.w3.org/2000/svg" d="M42.502,64h-35a.99943.99943,0,0,1-1-1L6.5,4.50977A4.507,4.507,0,0,1,10.99414,0H46a4.4262,4.4262,0,0,1,3.18262,1.3291A4.41606,4.41606,0,0,1,50.5,4.5V6a.99676.99676,0,0,1,.707.293l1.293,1.293,1.293-1.293a.99962.99962,0,0,1,1.41406,0l2,2A.99928.99928,0,0,1,57.5,9V29.5A4.51793,4.51793,0,0,1,53,34a4.50491,4.50491,0,0,1-4.5-4.5V4.5A2.51749,2.51749,0,0,0,46,2a2.50231,2.50231,0,0,0-2.5,2.5L43.502,63a1.00026,1.00026,0,0,1-1,1Zm-34-2h33L41.5,4.5A4.47877,4.47877,0,0,1,42.25977,2H10.99414A2.50507,2.50507,0,0,0,8.5,4.50977ZM50.5,8.41406V29.5A2.50231,2.50231,0,0,0,53,32a2.51749,2.51749,0,0,0,2.5-2.5V9.41406l-1-1L53.207,9.707a.99962.99962,0,0,1-1.41406,0Z" fill="#ffffff" data-original="#000000" class=""></path><path xmlns="http://www.w3.org/2000/svg" d="M53,34H42.501a1,1,0,0,1,0-2H53a1,1,0,0,1,0,2Z" fill="#ffffff" data-original="#000000" class=""></path><path xmlns="http://www.w3.org/2000/svg" d="M38.5,41h-27a1,1,0,0,1,0-2h27a1,1,0,0,1,0,2Z" fill="#ffffff" data-original="#000000" class=""></path><path xmlns="http://www.w3.org/2000/svg" d="M38.5,44h-3a1,1,0,0,1,0-2h3a1,1,0,0,1,0,2Z" fill="#ffffff" data-original="#000000" class=""></path><path xmlns="http://www.w3.org/2000/svg" d="M38.49805,47h-27a1,1,0,0,1,0-2h27a1,1,0,1,1,0,2Z" fill="#ffffff" data-original="#000000" class=""></path><path xmlns="http://www.w3.org/2000/svg" d="M38.49805,50h-3a1,1,0,0,1,0-2h3a1,1,0,1,1,0,2Z" fill="#ffffff" data-original="#000000" class=""></path><path xmlns="http://www.w3.org/2000/svg" d="M38.5,56h-3a1,1,0,0,1,0-2h3a1,1,0,0,1,0,2Z" fill="#ffffff" data-original="#000000" class=""></path><path xmlns="http://www.w3.org/2000/svg" d="M38.502,53H11.5a1,1,0,0,1,0-2H38.502a1,1,0,0,1,0,2Z" fill="#ffffff" data-original="#000000" class=""></path><path xmlns="http://www.w3.org/2000/svg" d="M24.52734,35a.9993.9993,0,0,1-.85742-.48535c-3.33105-5.5459-6.50879-11.23535-9.44433-16.91016L13.63867,16.459A.99962.99962,0,0,1,14.52734,15h10a1,1,0,0,1,0,2H16.165c2.60742,5.02637,5.40625,10.0625,8.331,14.99707L32.82812,17H28.52734a1,1,0,1,1,0-2h6a.9995.9995,0,0,1,.874,1.48535l-10,18A.99849.99849,0,0,1,24.544,35Z" fill="#ffffff" data-original="#000000" class=""></path><path xmlns="http://www.w3.org/2000/svg" d="M33.47461,17a.99943.99943,0,0,1-1-1,7.97368,7.97368,0,1,0-15.94727,0,1,1,0,1,1-2,0,9.97367,9.97367,0,1,1,19.94727,0A.99943.99943,0,0,1,33.47461,17Z" fill="#ffffff" data-original="#000000" class=""></path><path xmlns="http://www.w3.org/2000/svg" d="M26.52734,24a3.05452,3.05452,0,0,1-3-3.09961V16a1,1,0,1,1,2,0v4.90039a1.00451,1.00451,0,1,0,2,0V16a1,1,0,1,1,2,0v4.90039A3.05451,3.05451,0,0,1,26.52734,24Z" fill="#ffffff" data-original="#000000" class=""><svg></path><path xmlns="http://www.w3.org/2000/svg" d="M18.501,59h-7a1,1,0,1,1,0-2h7a1,1,0,0,1,0,2Z" fill="#ffffff" data-original="#000000" class=""></path><path xmlns="http://www.w3.org/2000/svg" d="M28.501,59h-6a1,1,0,0,1,0-2h6a1,1,0,0,1,0,2Z" data-original="#000000" class=""></path></g></svg>